<svg width="132" height="28" viewBox="0 0 132 28" fill="none" xmlns="http://www.w3.org/2000/svg">
<rect width="132" height="23" rx="5" fill="#2E293D"/>
<path d="M12.4748 15H11.6447V11.6357H7.89473V15H7.06465V7.86133H7.89473V10.9033H11.6447V7.86133H12.4748V15ZM16.6762 9.55078C17.1319 9.55078 17.5225 9.65169 17.848 9.85352C18.1736 10.0553 18.4226 10.3385 18.5951 10.7031C18.7676 11.0645 18.8539 11.4876 18.8539 11.9727V12.4756H15.1576C15.1674 13.1038 15.3236 13.5824 15.6264 13.9111C15.9291 14.2399 16.3555 14.4043 16.9057 14.4043C17.2442 14.4043 17.5437 14.3734 17.8041 14.3115C18.0645 14.2497 18.3347 14.1585 18.6146 14.0381V14.751C18.3445 14.8714 18.0759 14.9593 17.809 15.0146C17.5453 15.07 17.2328 15.0977 16.8715 15.0977C16.3572 15.0977 15.9079 14.9935 15.5238 14.7852C15.143 14.5736 14.8467 14.2643 14.6352 13.8574C14.4236 13.4505 14.3178 12.9525 14.3178 12.3633C14.3178 11.7871 14.4138 11.2891 14.6059 10.8691C14.8012 10.446 15.0746 10.1204 15.4262 9.89258C15.781 9.66471 16.1977 9.55078 16.6762 9.55078ZM16.6664 10.2148C16.2335 10.2148 15.8884 10.3564 15.6312 10.6396C15.3741 10.9229 15.2211 11.3184 15.1723 11.8262H18.0043C18.001 11.5072 17.9506 11.2272 17.8529 10.9863C17.7585 10.7422 17.6137 10.5534 17.4184 10.4199C17.223 10.2832 16.9724 10.2148 16.6664 10.2148ZM24.7838 10.9912C24.7838 11.3265 24.6861 11.5885 24.4908 11.7773C24.2955 11.9629 24.0432 12.0882 23.734 12.1533V12.1924C24.0693 12.238 24.3574 12.3584 24.5982 12.5537C24.8424 12.7458 24.9645 13.0404 24.9645 13.4375C24.9645 13.7435 24.8912 14.0137 24.7447 14.248C24.5982 14.4824 24.3687 14.6663 24.0562 14.7998C23.7437 14.9333 23.3368 15 22.8355 15H20.5309V9.64844H22.816C23.2001 9.64844 23.5387 9.69238 23.8316 9.78027C24.1279 9.86491 24.3606 10.0049 24.5299 10.2002C24.6992 10.3955 24.7838 10.6592 24.7838 10.9912ZM24.1197 13.4375C24.1197 13.1217 23.9993 12.8939 23.7584 12.7539C23.5208 12.6139 23.1741 12.5439 22.7184 12.5439H21.3463V14.3408H22.7379C23.1871 14.3408 23.5289 14.2725 23.7633 14.1357C24.0009 13.9958 24.1197 13.763 24.1197 13.4375ZM23.9586 11.084C23.9586 10.8301 23.8658 10.6413 23.6803 10.5176C23.4947 10.3906 23.1904 10.3271 22.7672 10.3271H21.3463V11.8652H22.6256C23.065 11.8652 23.3971 11.8018 23.6217 11.6748C23.8463 11.5479 23.9586 11.3509 23.9586 11.084ZM27.3445 9.64844V13.0127C27.3445 13.0778 27.3429 13.1624 27.3396 13.2666C27.3364 13.3675 27.3315 13.4766 27.325 13.5938C27.3185 13.7077 27.312 13.8184 27.3055 13.9258C27.3022 14.0299 27.2973 14.1162 27.2908 14.1846L30.2107 9.64844H31.2068V15H30.45V11.7188C30.45 11.6146 30.4516 11.4811 30.4549 11.3184C30.4581 11.1556 30.463 10.9961 30.4695 10.8398C30.476 10.6803 30.4809 10.5566 30.4842 10.4688L27.574 15H26.573V9.64844H27.3445ZM37.1514 9.64844V14.3115H37.918V16.8506H37.1318V15H33.3428V16.8506H32.5664V14.3115H32.9863C33.2923 13.8883 33.5462 13.4245 33.748 12.9199C33.9499 12.4154 34.1029 11.8864 34.207 11.333C34.3112 10.7764 34.3665 10.2148 34.373 9.64844H37.1514ZM36.3652 10.293H35.0957C35.0664 10.7682 34.9964 11.2516 34.8857 11.7432C34.7783 12.2347 34.6351 12.7035 34.4561 13.1494C34.277 13.5921 34.0687 13.9795 33.8311 14.3115H36.3652V10.293ZM40.0539 9.64844V13.0127C40.0539 13.0778 40.0523 13.1624 40.049 13.2666C40.0458 13.3675 40.0409 13.4766 40.0344 13.5938C40.0279 13.7077 40.0214 13.8184 40.0148 13.9258C40.0116 14.0299 40.0067 14.1162 40.0002 14.1846L42.9201 9.64844H43.9162V15H43.1594V11.7188C43.1594 11.6146 43.161 11.4811 43.1643 11.3184C43.1675 11.1556 43.1724 10.9961 43.1789 10.8398C43.1854 10.6803 43.1903 10.5566 43.1936 10.4688L40.2834 15H39.2824V9.64844H40.0539ZM51.5893 9.64844V15H50.8568V11.5137C50.8568 11.3704 50.8601 11.2256 50.8666 11.0791C50.8764 10.9294 50.8878 10.7796 50.9008 10.6299H50.8715L49.0941 15H48.4057L46.6723 10.6299H46.643C46.6527 10.7796 46.6592 10.9294 46.6625 11.0791C46.669 11.2256 46.6723 11.3802 46.6723 11.543V15H45.935V9.64844H47.0238L48.7523 14.0234L50.5053 9.64844H51.5893ZM58.1881 12.3145C58.1881 12.7539 58.1311 13.1462 58.0172 13.4912C57.9033 13.8363 57.7389 14.1276 57.524 14.3652C57.3092 14.6029 57.0488 14.7852 56.7428 14.9121C56.44 15.0358 56.0966 15.0977 55.7125 15.0977C55.3544 15.0977 55.0256 15.0358 54.7262 14.9121C54.4299 14.7852 54.1728 14.6029 53.9547 14.3652C53.7398 14.1276 53.5722 13.8363 53.4518 13.4912C53.3346 13.1462 53.276 12.7539 53.276 12.3145C53.276 11.7285 53.3753 11.2305 53.5738 10.8203C53.7724 10.4069 54.0556 10.0928 54.4234 9.87793C54.7945 9.65983 55.2356 9.55078 55.7467 9.55078C56.235 9.55078 56.6614 9.65983 57.026 9.87793C57.3938 10.096 57.6786 10.4118 57.8805 10.8252C58.0855 11.2354 58.1881 11.7318 58.1881 12.3145ZM54.1158 12.3145C54.1158 12.7441 54.1728 13.1169 54.2867 13.4326C54.4006 13.7484 54.5764 13.9925 54.8141 14.165C55.0517 14.3376 55.3577 14.4238 55.732 14.4238C56.1031 14.4238 56.4075 14.3376 56.6451 14.165C56.886 13.9925 57.0634 13.7484 57.1773 13.4326C57.2913 13.1169 57.3482 12.7441 57.3482 12.3145C57.3482 11.888 57.2913 11.5202 57.1773 11.2109C57.0634 10.8984 56.8876 10.6576 56.65 10.4883C56.4124 10.319 56.1048 10.2344 55.7271 10.2344C55.1705 10.2344 54.762 10.4183 54.5016 10.7861C54.2444 11.154 54.1158 11.6634 54.1158 12.3145ZM61.95 9.55078C62.4057 9.55078 62.7964 9.65169 63.1219 9.85352C63.4474 10.0553 63.6964 10.3385 63.8689 10.7031C64.0415 11.0645 64.1277 11.4876 64.1277 11.9727V12.4756H60.4314C60.4412 13.1038 60.5975 13.5824 60.9002 13.9111C61.2029 14.2399 61.6294 14.4043 62.1795 14.4043C62.518 14.4043 62.8175 14.3734 63.0779 14.3115C63.3383 14.2497 63.6085 14.1585 63.8885 14.0381V14.751C63.6183 14.8714 63.3497 14.9593 63.0828 15.0146C62.8191 15.07 62.5066 15.0977 62.1453 15.0977C61.631 15.0977 61.1818 14.9935 60.7977 14.7852C60.4168 14.5736 60.1206 14.2643 59.909 13.8574C59.6974 13.4505 59.5916 12.9525 59.5916 12.3633C59.5916 11.7871 59.6876 11.2891 59.8797 10.8691C60.075 10.446 60.3484 10.1204 60.7 9.89258C61.0548 9.66471 61.4715 9.55078 61.95 9.55078ZM61.9402 10.2148C61.5073 10.2148 61.1622 10.3564 60.9051 10.6396C60.6479 10.9229 60.4949 11.3184 60.4461 11.8262H63.2781C63.2749 11.5072 63.2244 11.2272 63.1268 10.9863C63.0324 10.7422 62.8875 10.5534 62.6922 10.4199C62.4969 10.2832 62.2462 10.2148 61.9402 10.2148ZM70.8459 15.0977C70.3641 15.0977 69.9393 14.9984 69.5715 14.7998C69.2036 14.6012 68.9172 14.2985 68.7121 13.8916C68.507 13.4847 68.4045 12.972 68.4045 12.3535C68.4045 11.7057 68.5119 11.1768 68.7268 10.7666C68.9449 10.3532 69.2443 10.0472 69.6252 9.84863C70.0061 9.65007 70.439 9.55078 70.924 9.55078C71.1909 9.55078 71.4481 9.57845 71.6955 9.63379C71.9462 9.68587 72.1512 9.7526 72.3107 9.83398L72.0666 10.5127C71.9038 10.4476 71.715 10.389 71.5002 10.3369C71.2886 10.2848 71.09 10.2588 70.9045 10.2588C70.5334 10.2588 70.2242 10.3385 69.9768 10.498C69.7326 10.6576 69.5487 10.8919 69.425 11.2012C69.3046 11.5104 69.2443 11.8913 69.2443 12.3438C69.2443 12.7767 69.3029 13.1462 69.4201 13.4521C69.5406 13.7581 69.718 13.9925 69.9523 14.1553C70.19 14.3148 70.4862 14.3945 70.841 14.3945C71.1242 14.3945 71.3798 14.3652 71.6076 14.3066C71.8355 14.2448 72.0422 14.1732 72.2277 14.0918V14.8145C72.0487 14.9056 71.8485 14.9756 71.6271 15.0244C71.409 15.0732 71.1486 15.0977 70.8459 15.0977ZM78.4115 12.3145C78.4115 12.7539 78.3546 13.1462 78.2406 13.4912C78.1267 13.8363 77.9623 14.1276 77.7475 14.3652C77.5326 14.6029 77.2722 14.7852 76.9662 14.9121C76.6635 15.0358 76.3201 15.0977 75.9359 15.0977C75.5779 15.0977 75.2491 15.0358 74.9496 14.9121C74.6534 14.7852 74.3962 14.6029 74.1781 14.3652C73.9633 14.1276 73.7956 13.8363 73.6752 13.4912C73.558 13.1462 73.4994 12.7539 73.4994 12.3145C73.4994 11.7285 73.5987 11.2305 73.7973 10.8203C73.9958 10.4069 74.279 10.0928 74.6469 9.87793C75.018 9.65983 75.4591 9.55078 75.9701 9.55078C76.4584 9.55078 76.8848 9.65983 77.2494 9.87793C77.6173 10.096 77.9021 10.4118 78.1039 10.8252C78.309 11.2354 78.4115 11.7318 78.4115 12.3145ZM74.3393 12.3145C74.3393 12.7441 74.3962 13.1169 74.5102 13.4326C74.6241 13.7484 74.7999 13.9925 75.0375 14.165C75.2751 14.3376 75.5811 14.4238 75.9555 14.4238C76.3266 14.4238 76.6309 14.3376 76.8686 14.165C77.1094 13.9925 77.2869 13.7484 77.4008 13.4326C77.5147 13.1169 77.5717 12.7441 77.5717 12.3145C77.5717 11.888 77.5147 11.5202 77.4008 11.2109C77.2869 10.8984 77.1111 10.6576 76.8734 10.4883C76.6358 10.319 76.3282 10.2344 75.9506 10.2344C75.394 10.2344 74.9854 10.4183 74.725 10.7861C74.4678 11.154 74.3393 11.6634 74.3393 12.3145ZM84.7271 12.3145C84.7271 12.7539 84.6702 13.1462 84.5562 13.4912C84.4423 13.8363 84.2779 14.1276 84.0631 14.3652C83.8482 14.6029 83.5878 14.7852 83.2818 14.9121C82.9791 15.0358 82.6357 15.0977 82.2516 15.0977C81.8935 15.0977 81.5647 15.0358 81.2652 14.9121C80.969 14.7852 80.7118 14.6029 80.4937 14.3652C80.2789 14.1276 80.1113 13.8363 79.9908 13.4912C79.8736 13.1462 79.815 12.7539 79.815 12.3145C79.815 11.7285 79.9143 11.2305 80.1129 10.8203C80.3115 10.4069 80.5947 10.0928 80.9625 9.87793C81.3336 9.65983 81.7747 9.55078 82.2857 9.55078C82.774 9.55078 83.2004 9.65983 83.565 9.87793C83.9329 10.096 84.2177 10.4118 84.4195 10.8252C84.6246 11.2354 84.7271 11.7318 84.7271 12.3145ZM80.6549 12.3145C80.6549 12.7441 80.7118 13.1169 80.8258 13.4326C80.9397 13.7484 81.1155 13.9925 81.3531 14.165C81.5907 14.3376 81.8967 14.4238 82.2711 14.4238C82.6422 14.4238 82.9465 14.3376 83.1842 14.165C83.4251 13.9925 83.6025 13.7484 83.7164 13.4326C83.8303 13.1169 83.8873 12.7441 83.8873 12.3145C83.8873 11.888 83.8303 11.5202 83.7164 11.2109C83.6025 10.8984 83.4267 10.6576 83.1891 10.4883C82.9514 10.319 82.6438 10.2344 82.2662 10.2344C81.7096 10.2344 81.301 10.4183 81.0406 10.7861C80.7835 11.154 80.6549 11.6634 80.6549 12.3145ZM86.1502 11.7871C86.1502 11.0254 86.2234 10.376 86.3699 9.83887C86.5164 9.2985 86.7426 8.86556 87.0486 8.54004C87.3579 8.21126 87.755 7.98665 88.24 7.86621C88.6567 7.75228 89.0799 7.65462 89.5096 7.57324C89.9393 7.48861 90.3575 7.41536 90.7645 7.35352L90.9061 8.06641C90.701 8.0957 90.4861 8.12988 90.2615 8.16895C90.0369 8.20475 89.8123 8.24382 89.5877 8.28613C89.3631 8.3252 89.1515 8.36751 88.9529 8.41309C88.7544 8.4554 88.5786 8.49935 88.4256 8.54492C88.1489 8.61979 87.9096 8.75 87.7078 8.93555C87.5092 9.12109 87.3514 9.37663 87.2342 9.70215C87.1202 10.0277 87.0519 10.4378 87.0291 10.9326H87.0877C87.1853 10.7894 87.3188 10.6478 87.4881 10.5078C87.6574 10.3678 87.8592 10.2523 88.0936 10.1611C88.3279 10.0667 88.5916 10.0195 88.8846 10.0195C89.3468 10.0195 89.7325 10.1204 90.0418 10.3223C90.351 10.5208 90.5838 10.8008 90.74 11.1621C90.8963 11.5234 90.9744 11.9466 90.9744 12.4316C90.9744 13.0143 90.8735 13.5042 90.6717 13.9014C90.4731 14.2985 90.1932 14.598 89.8318 14.7998C89.4705 14.9984 89.0457 15.0977 88.5574 15.0977C88.1798 15.0977 87.8413 15.0244 87.5418 14.8779C87.2456 14.7314 86.9933 14.5166 86.785 14.2334C86.5799 13.9502 86.422 13.6035 86.3113 13.1934C86.2039 12.7832 86.1502 12.3145 86.1502 11.7871ZM88.6209 14.4238C88.9301 14.4238 89.1954 14.3587 89.4168 14.2285C89.6414 14.0983 89.8139 13.8932 89.9344 13.6133C90.0581 13.3301 90.1199 12.9622 90.1199 12.5098C90.1199 11.9434 90.0109 11.5007 89.7928 11.1816C89.5779 10.8594 89.2329 10.6982 88.7576 10.6982C88.4614 10.6982 88.1928 10.7617 87.952 10.8887C87.7111 11.0124 87.5076 11.1605 87.3416 11.333C87.1756 11.5055 87.0551 11.6602 86.9803 11.7969C86.9803 12.1289 87.0047 12.4512 87.0535 12.7637C87.1023 13.0762 87.187 13.3577 87.3074 13.6084C87.4279 13.859 87.5939 14.0576 87.8055 14.2041C88.0203 14.3506 88.2921 14.4238 88.6209 14.4238ZM99.8486 9.64844V14.3213H100.615V16.8408H99.7998V15H92.6758V9.64844H93.4863V14.3115H95.8545V9.64844H96.6699V14.3115H99.043V9.64844H99.8486ZM104.011 9.55078C104.467 9.55078 104.857 9.65169 105.183 9.85352C105.508 10.0553 105.757 10.3385 105.93 10.7031C106.102 11.0645 106.189 11.4876 106.189 11.9727V12.4756H102.492C102.502 13.1038 102.658 13.5824 102.961 13.9111C103.264 14.2399 103.69 14.4043 104.24 14.4043C104.579 14.4043 104.878 14.3734 105.139 14.3115C105.399 14.2497 105.669 14.1585 105.949 14.0381V14.751C105.679 14.8714 105.411 14.9593 105.144 15.0146C104.88 15.07 104.568 15.0977 104.206 15.0977C103.692 15.0977 103.243 14.9935 102.859 14.7852C102.478 14.5736 102.182 14.2643 101.97 13.8574C101.758 13.4505 101.653 12.9525 101.653 12.3633C101.653 11.7871 101.749 11.2891 101.941 10.8691C102.136 10.446 102.409 10.1204 102.761 9.89258C103.116 9.66471 103.532 9.55078 104.011 9.55078ZM104.001 10.2148C103.568 10.2148 103.223 10.3564 102.966 10.6396C102.709 10.9229 102.556 11.3184 102.507 11.8262H105.339C105.336 11.5072 105.285 11.2272 105.188 10.9863C105.093 10.7422 104.948 10.5534 104.753 10.4199C104.558 10.2832 104.307 10.2148 104.001 10.2148ZM108.681 9.64844V11.8945H111.664V9.64844H112.475V15H111.664V12.583H108.681V15H107.866V9.64844H108.681ZM115.265 9.64844V13.0127C115.265 13.0778 115.264 13.1624 115.26 13.2666C115.257 13.3675 115.252 13.4766 115.246 13.5938C115.239 13.7077 115.233 13.8184 115.226 13.9258C115.223 14.0299 115.218 14.1162 115.212 14.1846L118.131 9.64844H119.128V15H118.371V11.7188C118.371 11.6146 118.372 11.4811 118.376 11.3184C118.379 11.1556 118.384 10.9961 118.39 10.8398C118.397 10.6803 118.402 10.5566 118.405 10.4688L115.495 15H114.494V9.64844H115.265ZM123.212 9.55078C123.667 9.55078 124.058 9.65169 124.384 9.85352C124.709 10.0553 124.958 10.3385 125.131 10.7031C125.303 11.0645 125.389 11.4876 125.389 11.9727V12.4756H121.693C121.703 13.1038 121.859 13.5824 122.162 13.9111C122.465 14.2399 122.891 14.4043 123.441 14.4043C123.78 14.4043 124.079 14.3734 124.34 14.3115C124.6 14.2497 124.87 14.1585 125.15 14.0381V14.751C124.88 14.8714 124.611 14.9593 124.345 15.0146C124.081 15.07 123.768 15.0977 123.407 15.0977C122.893 15.0977 122.443 14.9935 122.059 14.7852C121.679 14.5736 121.382 14.2643 121.171 13.8574C120.959 13.4505 120.853 12.9525 120.853 12.3633C120.853 11.7871 120.949 11.2891 121.141 10.8691C121.337 10.446 121.61 10.1204 121.962 9.89258C122.317 9.66471 122.733 9.55078 123.212 9.55078ZM123.202 10.2148C122.769 10.2148 122.424 10.3564 122.167 10.6396C121.91 10.9229 121.757 11.3184 121.708 11.8262H124.54C124.537 11.5072 124.486 11.2272 124.388 10.9863C124.294 10.7422 124.149 10.5534 123.954 10.4199C123.759 10.2832 123.508 10.2148 123.202 10.2148Z" fill="white"/>
<path d="M70.2427 23L66 27.2426L61.7574 23H70.2427Z" fill="#2E293D"/>
</svg>
